<svg width="54" height="54" viewBox="0 0 54 54" fill="none" xmlns="http://www.w3.org/2000/svg">
<path d="M40.8015 24.75C42.1088 36.8438 47.25 40.5 47.25 40.5H6.75C6.75 40.5 13.5 35.7007 13.5 18.9C13.5 15.0817 14.922 11.4188 17.4532 8.71875C19.9868 6.01875 23.4225 4.5 27 4.5C27.7583 4.5 28.512 4.5675 29.25 4.7025M30.8925 47.25C30.4974 47.9325 29.9298 48.4991 29.2466 48.893C28.5634 49.2869 27.7886 49.4943 27 49.4943C26.2114 49.4943 25.4366 49.2869 24.7534 48.893C24.0702 48.4991 23.5026 47.9325 23.1075 47.25M42.75 18C44.5402 18 46.2571 17.2888 47.523 16.023C48.7888 14.7571 49.5 13.0402 49.5 11.25C49.5 9.45979 48.7888 7.7429 47.523 6.47703C46.2571 5.21116 44.5402 4.5 42.75 4.5C40.9598 4.5 39.2429 5.21116 37.977 6.47703C36.7112 7.7429 36 9.45979 36 11.25C36 13.0402 36.7112 14.7571 37.977 16.023C39.2429 17.2888 40.9598 18 42.75 18Z" stroke="black" stroke-width="3" stroke-linecap="round" stroke-linejoin="round"/>
</svg>
