<svg width="99" height="99" viewBox="0 0 99 99" fill="none" xmlns="http://www.w3.org/2000/svg">
<path d="M49.5 36.6126C42.4037 36.6126 36.6126 42.4037 36.6126 49.5C36.6126 56.5963 42.4037 62.3874 49.5 62.3874C56.5963 62.3874 62.3874 56.5963 62.3874 49.5C62.3874 42.4037 56.5963 36.6126 49.5 36.6126ZM88.1525 49.5C88.1525 44.1633 88.2009 38.8749 87.9012 33.5478C87.6014 27.3604 86.1899 21.8689 81.6653 17.3443C77.131 12.8101 71.6493 11.4082 65.4618 11.1085C60.1251 10.8088 54.8367 10.8571 49.5096 10.8571C44.1729 10.8571 38.8845 10.8088 33.5575 11.1085C27.37 11.4082 21.8786 12.8197 17.354 17.3443C12.8197 21.8786 11.4178 27.3604 11.1181 33.5478C10.8184 38.8846 10.8668 44.1729 10.8668 49.5C10.8668 54.827 10.8184 60.1251 11.1181 65.4521C11.4178 71.6396 12.8294 77.131 17.354 81.6557C21.8883 86.1899 27.37 87.5918 33.5575 87.8915C38.8942 88.1912 44.1826 88.1429 49.5096 88.1429C54.8464 88.1429 60.1347 88.1912 65.4618 87.8915C71.6493 87.5918 77.1407 86.1803 81.6653 81.6557C86.1996 77.1214 87.6014 71.6396 87.9012 65.4521C88.2105 60.1251 88.1525 54.8367 88.1525 49.5V49.5ZM49.5 69.329C38.5268 69.329 29.671 60.4731 29.671 49.5C29.671 38.5269 38.5268 29.671 49.5 29.671C60.4731 29.671 69.329 38.5269 69.329 49.5C69.329 60.4731 60.4731 69.329 49.5 69.329ZM70.1411 33.4898C67.5791 33.4898 65.5101 31.4209 65.5101 28.8589C65.5101 26.2969 67.5791 24.2279 70.1411 24.2279C72.7031 24.2279 74.772 26.2969 74.772 28.8589C74.7728 29.4672 74.6535 30.0698 74.4211 30.632C74.1886 31.1942 73.8475 31.705 73.4174 32.1352C72.9872 32.5653 72.4764 32.9064 71.9142 33.1389C71.352 33.3713 70.7495 33.4906 70.1411 33.4898V33.4898Z" fill="#151515"/>
</svg>
